<?xml version="1.0" encoding="UTF-8"?>
<svg version="1.1" xmlns="http://www.w3.org/2000/svg" width="631" height="257">
<path d="M0 0 C5.31894145 4.09820079 8.22645374 8.98163265 9.70703125 15.52734375 C9.70703125 17.83734375 9.70703125 20.14734375 9.70703125 22.52734375 C4.42703125 22.52734375 -0.85296875 22.52734375 -6.29296875 22.52734375 C-6.95296875 20.21734375 -7.61296875 17.90734375 -8.29296875 15.52734375 C-13.14532119 10.79941061 -17.05590112 10.35528561 -23.66796875 10.27734375 C-24.97507813 10.2515625 -26.2821875 10.22578125 -27.62890625 10.19921875 C-31.45561737 10.5419093 -33.31004185 11.15658468 -36.29296875 13.52734375 C-37.62847722 16.37361966 -37.62847722 16.37361966 -37.29296875 19.52734375 C-33.3381826 24.69164196 -29.27897025 25.74844942 -23.23046875 27.08984375 C-21.5241292 27.50662349 -19.81839625 27.92589463 -18.11328125 28.34765625 C-17.28731445 28.5477832 -16.46134766 28.74791016 -15.61035156 28.95410156 C-6.57401779 31.18938514 2.23276747 33.62945059 8.08203125 41.33984375 C11.08772431 46.51631513 11.60445752 51.65668025 10.70703125 57.52734375 C8.80354749 64.23712401 4.62047741 68.08679326 -1.29296875 71.52734375 C-12.747094 77.01845997 -26.47806818 77.0153812 -38.5390625 73.5625 C-46.42364001 70.59879356 -51.98442131 65.74416071 -56.29296875 58.52734375 C-57.66317872 54.41671384 -57.35573512 50.85822313 -57.29296875 46.52734375 C-52.34296875 46.52734375 -47.39296875 46.52734375 -42.29296875 46.52734375 C-41.61234375 47.92984375 -40.93171875 49.33234375 -40.23046875 50.77734375 C-37.63246422 55.37993674 -35.37988989 57.93050948 -30.29296875 59.52734375 C-23.32005391 61.03814197 -16.6709719 61.05977627 -10.29296875 57.52734375 C-8.00742844 54.64997293 -8.00742844 54.64997293 -8.10546875 51.08984375 C-8.87792772 47.54996337 -8.87792772 47.54996337 -10.99316406 46.40551758 C-16.96354121 43.89479165 -22.94830593 42.19605382 -29.23046875 40.65234375 C-47.45786994 35.90395281 -47.45786994 35.90395281 -52.85546875 28.33984375 C-55.79736691 22.58395605 -56.47228294 16.56969178 -54.64453125 10.3046875 C-51.52969444 3.3961392 -46.44197962 -0.78301344 -39.60546875 -3.84765625 C-27.01876452 -7.99099734 -11.19087581 -7.18732569 0 0 Z " fill="#000000" transform="translate(142.29296875,94.47265625)"/>
<path d="M0 0 C3.25 2.1875 3.25 2.1875 5.25 5.1875 C5.58 2.8775 5.91 0.5675 6.25 -1.8125 C11.53 -1.8125 16.81 -1.8125 22.25 -1.8125 C22.31785354 7.34111711 22.37286086 16.49456639 22.40543652 25.64837837 C22.42107344 29.89914439 22.44227545 34.149729 22.47631836 38.40039062 C22.50898252 42.50471651 22.52686786 46.60886819 22.53463173 50.71331406 C22.5401626 52.27697363 22.55096312 53.84062398 22.56719017 55.40420914 C22.58905886 57.59927002 22.59196308 59.79361674 22.59057617 61.98876953 C22.59723801 63.23675323 22.60389984 64.48473694 22.61076355 65.77053833 C22.07735783 70.82267536 20.46659544 74.06214921 16.75 77.5 C12.56397231 80.32556869 9.33975922 80.30602219 4.39453125 80.28515625 C3.73289474 80.2837413 3.07125824 80.28232635 2.38957214 80.28086853 C0.28050172 80.27527996 -1.82846177 80.26272965 -3.9375 80.25 C-5.36913909 80.24498352 -6.80077985 80.24042087 -8.23242188 80.23632812 C-11.73835539 80.226166 -15.24405827 80.20658861 -18.75 80.1875 C-18.75 75.5675 -18.75 70.9475 -18.75 66.1875 C-16.19276771 64.90888385 -14.38262898 65.07413391 -11.5234375 65.08984375 C-9.9765625 65.09467773 -9.9765625 65.09467773 -8.3984375 65.09960938 C-6.77808594 65.11217773 -6.77808594 65.11217773 -5.125 65.125 C-3.49304688 65.13176758 -3.49304688 65.13176758 -1.828125 65.13867188 C0.86460662 65.1504821 3.55731009 65.16841795 6.25 65.1875 C5.755 57.7625 5.755 57.7625 5.25 50.1875 C4.38375 50.97125 3.5175 51.755 2.625 52.5625 C-2.28615605 56.60361442 -7.12684909 57.6060108 -13.3828125 57.4375 C-20.33915383 56.70283689 -25.8767476 54.2874153 -30.75 49.1875 C-37.0935181 38.98094203 -37.39661569 26.25054749 -35.03125 14.66796875 C-32.72780448 7.87837731 -29.42683938 3.65572158 -23.3125 -0.125 C-16.28540598 -3.39186534 -6.98936316 -3.30336689 0 0 Z M-17.75 16.1875 C-20.80355545 22.12671782 -20.38254166 28.68680075 -19.75 35.1875 C-18.34124491 39.05290191 -16.17914529 40.90140314 -12.75 43.1875 C-7.79176219 43.847575 -3.26206199 43.943531 1.25 41.6875 C5.44154697 36.44806629 6.9678637 30.88756122 6.25 24.1875 C5.05107889 19.78330001 3.82035942 16.18483877 0.25 13.1875 C-6.48709044 10.94180319 -12.32749455 11.29401947 -17.75 16.1875 Z " fill="#000000" transform="translate(517.75,112.8125)"/>
<path d="M0 0 C5.28 0 10.56 0 16 0 C16.33 9.24 16.66 18.48 17 28 C19.31 26.02 21.62 24.04 24 22 C30.54043933 19.81985356 40.1570069 19.67111491 46.5625 22.5 C51.75806694 25.70336698 55.06372769 30.45640695 57.14453125 36.109375 C58.20901061 40.9505688 58.33005728 45.49688246 58.3125 50.4375 C58.32861328 51.34048828 58.34472656 52.24347656 58.36132812 53.17382812 C58.36737523 61.52488466 56.399879 68.40014789 51 75 C47.34963129 77.72688641 43.55982086 79.56573135 39 80 C38.35417969 80.06316406 37.70835937 80.12632812 37.04296875 80.19140625 C29.39539345 80.6065986 23.04865169 78.19502921 16.875 73.75 C16.25625 73.1725 15.6375 72.595 15 72 C14.67 73.98 14.34 75.96 14 78 C9.38 78 4.76 78 0 78 C0 52.26 0 26.52 0 0 Z M19 39 C16.554363 42.61382787 16.66769936 46.09652374 16.625 50.375 C16.59664063 51.66148437 16.56828125 52.94796875 16.5390625 54.2734375 C17.07440772 58.60156752 18.2106123 60.68209673 21 64 C25.19060006 66.91739964 30.09268413 66.65218785 35 66 C38.63380386 63.88028108 40.49601647 61.88420094 42 58 C42.393181 54.46924298 42.393181 54.46924298 42.375 50.625 C42.41753906 48.69527344 42.41753906 48.69527344 42.4609375 46.7265625 C41.92559228 42.39843248 40.7893877 40.31790327 38 37 C31.7905568 32.7540171 24.39238828 34.26522005 19 39 Z " fill="#010101" transform="translate(335,90)"/>
<path d="M0 0 C5.28 0 10.56 0 16 0 C16.33 8.91 16.66 17.82 17 27 C18.65 25.68 20.3 24.36 22 23 C27.29967467 19.56178131 33.95476268 20.47197255 40 21 C45.02220457 22.23024546 47.97439915 24.50358722 50.875 28.75 C54.79774354 35.27876198 55.29488477 42.46643491 55.1953125 49.875 C55.19106766 51.08990112 55.19106766 51.08990112 55.18673706 52.3293457 C55.17564715 54.88638834 55.15056452 57.44306535 55.125 60 C55.1149557 61.74608865 55.1058324 63.49218285 55.09765625 65.23828125 C55.07745608 69.49243766 55.03828766 73.74581527 55 78 C49.72 78 44.44 78 39 78 C38.96261719 75.54304688 38.92523438 73.08609375 38.88671875 70.5546875 C38.84043964 68.16169594 38.78922938 65.76885685 38.73754883 63.37597656 C38.70439982 61.71949616 38.67633691 60.06290554 38.65356445 58.40625 C38.61983268 56.01775366 38.56751041 53.63025829 38.51171875 51.2421875 C38.50213387 50.14026566 38.50213387 50.14026566 38.49235535 49.01608276 C38.35933037 44.30995624 37.49987597 40.99750282 35 37 C31.52915109 35.26457554 27.7949121 35.54040857 24 36 C20.30294748 37.9665173 19.26672069 39.22965067 17.89697266 43.18579102 C16.98838577 47.04938733 16.6845987 50.5019524 16.5859375 54.46484375 C16.56657135 55.14301651 16.5472052 55.82118927 16.5272522 56.51991272 C16.46808001 58.65898566 16.42132481 60.79811428 16.375 62.9375 C16.33676255 64.39911036 16.29770758 65.86069957 16.2578125 67.32226562 C16.16091058 70.88139236 16.08085326 74.44032883 16 78 C10.72 78 5.44 78 0 78 C0 52.26 0 26.52 0 0 Z " fill="#000000" transform="translate(160,90)"/>
<path d="M0 0 C1.29550781 -0.02578125 2.59101563 -0.0515625 3.92578125 -0.078125 C9.14097305 0.3767827 12.40121849 2.39247899 16.6875 5.25 C17.0175 3.6 17.3475 1.95 17.6875 0.25 C20.33340014 0.22315321 22.97903096 0.20323643 25.625 0.1875 C26.37974609 0.17912109 27.13449219 0.17074219 27.91210938 0.16210938 C29.83744313 0.15347559 31.76285581 0.19775667 33.6875 0.25 C34.6875 1.25 34.6875 1.25 34.80775452 3.49623108 C34.80553391 4.48884445 34.80331329 5.48145782 34.80102539 6.50415039 C34.80094986 7.62523697 34.80087433 8.74632355 34.80079651 9.90138245 C34.79563522 11.1211528 34.79047394 12.34092316 34.78515625 13.59765625 C34.7837413 14.83921982 34.78232635 16.08078339 34.78086853 17.35997009 C34.77620591 20.66605491 34.76721497 23.97207146 34.75616455 27.27813721 C34.74594827 30.6496115 34.74137045 34.02109283 34.73632812 37.39257812 C34.72527395 44.01174018 34.7079966 50.63086071 34.6875 57.25 C29.7375 57.25 24.7875 57.25 19.6875 57.25 C19.0275 55.6 18.3675 53.95 17.6875 52.25 C16.841875 53.03375 15.99625 53.8175 15.125 54.625 C10.32059223 58.59679377 4.99822194 59.71632731 -1.20703125 59.48828125 C-7.23541711 58.8060335 -11.86592597 57.18866233 -16.1875 52.8125 C-22.94457544 44.2054596 -23.20438471 32.74772405 -22.3125 22.25 C-20.97165668 14.48671149 -18.72020016 8.32524161 -12.75 2.9375 C-8.53920786 0.02233621 -5.01796987 0.05956047 0 0 Z M-4.3125 19.25 C-7.3774537 24.35825616 -7.08426147 30.90382254 -5.77734375 36.5703125 C-4.38793083 40.6854043 -3.02797979 43.04578997 0.6875 45.25 C5.43135682 46.1062083 9.47139003 45.93406186 13.6875 43.5625 C18.20893708 38.33458838 18.0539842 32.99756759 17.94140625 26.35546875 C17.56117573 21.70495701 16.35600573 18.74839777 12.88671875 15.6328125 C6.6838297 11.73259452 -0.20742724 13.47724143 -4.3125 19.25 Z " fill="#000000" transform="translate(241.3125,110.75)"/>
<path d="M0 0 C6.49842322 4.38348184 10.92953052 10.06068933 12.74609375 17.71875 C14.28468014 28.16022465 13.45048338 37.42733839 7.86328125 46.546875 C3.66171653 52.05923429 -1.8225848 54.2095333 -8.2890625 56.19921875 C-16.87352667 57.03672745 -25.20089015 56.86756837 -32.9765625 52.82421875 C-40.27343999 46.79636344 -44.75093602 40.98798159 -45.8515625 31.44921875 C-46.50383922 20.99302525 -44.7554408 12.58536824 -37.8515625 4.44921875 C-28.34078606 -4.33489162 -11.57008728 -5.62709023 0 0 Z M-23.8515625 11.44921875 C-28.7611117 16.47034862 -29.6569596 19.48152457 -30.1015625 26.26171875 C-30.03472579 31.3031161 -28.74048435 36.22726384 -25.43359375 40.1171875 C-21.94009624 43.05862614 -17.70987497 42.84129275 -13.36328125 42.796875 C-9.18303983 42.21827238 -7.6374597 40.5833531 -4.8515625 37.44921875 C-1.92921172 31.51413522 -1.85294486 24.61134043 -3.38671875 18.21875 C-4.79914352 14.59892914 -6.33299948 12.11590649 -9.8515625 10.44921875 C-14.78689217 9.34733464 -19.42234294 8.61943958 -23.8515625 11.44921875 Z " fill="#000000" transform="translate(465.8515625,113.55078125)"/>
<path d="M0 0 C4.32968456 3.35954777 6.41931223 6.47823073 8.0078125 11.7109375 C8.0078125 13.6909375 8.0078125 15.6709375 8.0078125 17.7109375 C3.0578125 17.7109375 -1.8921875 17.7109375 -6.9921875 17.7109375 C-7.3634375 16.5971875 -7.7346875 15.4834375 -8.1171875 14.3359375 C-9.36170855 11.5027882 -9.77770926 10.83648574 -12.5546875 9.2109375 C-17.1643901 8.5404353 -21.40416175 9.0399614 -25.9921875 9.7109375 C-26.40965358 12.58458541 -26.40965358 12.58458541 -25.9921875 15.7109375 C-22.00135482 18.80713907 -17.53286775 19.78021964 -12.7421875 21.0234375 C-4.78623299 23.23870808 2.08529666 25.63712754 7.0703125 32.5859375 C8.618447 37.74638582 8.65237997 41.77723508 6.9453125 46.8984375 C3.52615744 51.8617271 -0.51696638 54.56088222 -6.3671875 56.0234375 C-16.4451219 57.77095811 -26.33679576 56.76799137 -35.2734375 51.3203125 C-38.97887839 48.33711857 -41.38348684 45.25315112 -42.9921875 40.7109375 C-42.9921875 38.7309375 -42.9921875 36.7509375 -42.9921875 34.7109375 C-38.0421875 34.7109375 -33.0921875 34.7109375 -27.9921875 34.7109375 C-27.5796875 35.8246875 -27.1671875 36.9384375 -26.7421875 38.0859375 C-25.75704982 40.33314097 -25.18942195 41.54292297 -23.3046875 43.1484375 C-18.6194573 44.28808809 -13.58957022 44.24339841 -8.9921875 42.7109375 C-8.65820963 39.83680625 -8.65820963 39.83680625 -8.9921875 36.7109375 C-12.80253422 32.77125786 -18.41024982 32.02817674 -23.52929688 30.69335938 C-30.79164901 28.70217321 -36.5915484 26.1426408 -40.9921875 19.7109375 C-43.07878375 15.537745 -42.68039807 10.03857963 -41.37890625 5.63671875 C-38.9174245 0.63785053 -35.10806351 -1.43056067 -29.9921875 -3.2890625 C-20.67088612 -6.3220239 -8.23998506 -5.33175504 0 0 Z " fill="#010101" transform="translate(321.9921875,113.2890625)"/>
<path d="M0 0 C5.28 0 10.56 0 16 0 C16 25.74 16 51.48 16 78 C10.72 78 5.44 78 0 78 C0 52.26 0 26.52 0 0 Z " fill="#010101" transform="translate(400,90)"/>
<path d="M0 0 C3.0625 1.9375 3.0625 1.9375 5 5 C5.84905616 9.26044253 5.6753605 12.68143902 3.6875 16.5625 C-0.57853327 18.84433175 -5.28390727 18.97921925 -10 18 C-12.20209398 15.91180743 -12.90269604 14.54700605 -13.43359375 11.5625 C-13.44388632 4.81057502 -13.44388632 4.81057502 -11.5625 1.375 C-7.6953375 -0.70006281 -4.28319071 -0.85358961 0 0 Z " fill="#F24238" transform="translate(559,150)"/>
</svg>
